<svg width="8" height="9" viewBox="0 0 8 9" fill="none" xmlns="http://www.w3.org/2000/svg">
<path d="M6.40721 5.75228L5.56054 5.65561C5.35721 5.63228 5.15721 5.70228 5.01387 5.84561L4.40054 6.45894C3.45721 5.97894 2.68387 5.20895 2.20387 4.26228L2.82054 3.64561C2.96387 3.50228 3.03387 3.30228 3.01054 3.09895L2.91387 2.25895C2.87387 1.92228 2.59054 1.66895 2.25054 1.66895H1.67387C1.29721 1.66895 0.983873 1.98228 1.00721 2.35895C1.18387 5.20561 3.46054 7.47894 6.30387 7.65561C6.68054 7.67894 6.99387 7.36561 6.99387 6.98894V6.41228C6.99721 6.07561 6.74387 5.79228 6.40721 5.75228Z" fill="#F94C15"/>
</svg>
