<svg width="117" height="63" viewBox="0 0 117 63" fill="none" xmlns="http://www.w3.org/2000/svg">
<path d="M5.9002 20.9527H0.632047C0.284011 20.9527 0 20.6629 0 20.3073C0 20.3039 0 20.3005 0 20.2971C0 20.2938 0 20.2904 0 20.287C0 19.9298 0.284011 19.6416 0.632047 19.6416H5.9002C5.88542 19.859 5.87721 20.0764 5.87721 20.2971C5.87721 20.5179 5.88542 20.7353 5.9002 20.9527ZM6.30405 17.5046L0.991574 16.7866C0.661597 16.7428 0.354603 16.9687 0.288936 17.304C0.288936 17.3091 0.287294 17.3125 0.285652 17.3175C0.213418 17.6849 0.461312 18.0371 0.822481 18.086L5.99705 18.7854C6.06765 18.3506 6.16943 17.9242 6.30077 17.5063L6.30405 17.5046ZM7.20041 15.526L1.8945 14.0665C1.59079 13.9823 1.2723 14.1407 1.14918 14.439C1.14753 14.4424 1.14589 14.4474 1.14425 14.4508C0.994858 14.8148 1.19022 15.2294 1.56124 15.3305L6.59298 16.7142C6.767 16.3013 6.96893 15.9035 7.19876 15.5243L7.20041 15.526ZM8.46122 13.898C8.4842 13.8744 8.50882 13.8508 8.53181 13.8255L3.29485 11.5992C3.01905 11.4813 2.69892 11.579 2.53147 11.8335C2.52983 11.8369 2.52654 11.8402 2.5249 11.8453C2.29999 12.1857 2.43625 12.6509 2.80563 12.8093L7.64202 14.8654C7.89155 14.525 8.16407 14.2031 8.46122 13.898ZM10.2096 12.5026L5.11055 9.4825C4.8643 9.33587 4.55238 9.37801 4.34881 9.58362C4.34553 9.58699 4.34224 9.59036 4.33896 9.59373C4.04346 9.8954 4.10912 10.401 4.46865 10.615L9.05715 13.3351C9.41831 13.025 9.80247 12.7486 10.2047 12.5026H10.2096ZM11.2652 11.9548C11.5492 11.8318 11.8398 11.724 12.1337 11.633L7.2513 7.78876C7.03624 7.61854 6.73909 7.61011 6.51254 7.76685C6.50926 7.77022 6.50433 7.7719 6.50105 7.77527C6.14316 8.02133 6.13003 8.55726 6.4715 8.82691L10.753 12.1992C10.9205 12.1133 11.0912 12.0324 11.2636 11.9565L11.2652 11.9548ZM14.1332 11.3245L9.658 6.52477C9.47906 6.33265 9.20325 6.27366 8.96357 6.37141C8.95864 6.37309 8.95536 6.37478 8.95044 6.37647C8.53673 6.54837 8.42346 7.09441 8.73209 7.42473L12.5523 11.5268C13.0678 11.4105 13.5947 11.3431 14.1299 11.3245H14.1332ZM14.6947 11.2453C15.2118 11.2453 15.5254 11.2554 16.0244 11.3448L12.068 5.82537C11.9186 5.62482 11.6691 5.53212 11.4294 5.58774C11.4228 5.58774 11.4162 5.59111 11.4097 5.59279C10.9615 5.69728 10.7727 6.24501 11.0518 6.61915L14.5141 11.2504C14.5732 11.2504 14.6323 11.2487 14.693 11.2487L14.6947 11.2453ZM29.3746 19.6399C29.3614 19.3096 29.3368 18.9826 29.3023 18.659C29.2679 18.3253 29.2219 17.995 29.1661 17.6697C29.1086 17.331 29.0397 16.9939 28.9592 16.6636C28.8755 16.3164 28.7803 15.9726 28.6736 15.6339C28.5603 15.2749 28.4339 14.9227 28.296 14.5772C28.1482 14.2064 27.9857 13.8441 27.8117 13.4902C27.6229 13.1093 27.4193 12.7368 27.201 12.3745C26.9646 11.9818 26.7118 11.6026 26.4425 11.2352C26.4392 11.2319 26.4376 11.2285 26.4343 11.2234C26.1454 10.8291 25.8368 10.4499 25.5117 10.0875C25.4854 10.0572 25.4575 10.0285 25.4313 9.9982C25.098 9.63249 24.7483 9.28532 24.3822 8.95499C24.3215 8.90106 24.2624 8.84713 24.2016 8.79489C23.8273 8.46962 23.4383 8.16121 23.0328 7.87471C22.9293 7.80224 22.8259 7.72977 22.7208 7.66067C22.3088 7.38428 21.8836 7.1298 21.4453 6.89554C21.2909 6.81296 21.135 6.73375 20.9774 6.65791C20.5358 6.44219 20.081 6.25007 19.6164 6.07985C19.4046 6.00233 19.1912 5.92986 18.9762 5.86413C18.5132 5.71919 18.0404 5.59785 17.561 5.5001C17.2918 5.44617 17.0209 5.39898 16.7468 5.35854C16.2756 5.29112 15.7962 5.24731 15.3119 5.2254C15.1067 5.21697 14.9015 5.21191 14.6947 5.21191C14.5075 5.21191 14.3204 5.21528 14.1332 5.22203C13.5718 5.24394 13.2336 5.86919 13.5143 6.36804L16.3446 11.4004C16.9126 11.5099 17.4675 11.6785 18.0059 11.9026C18.0453 11.9195 18.0847 11.9346 18.1225 11.9532C18.5789 12.1503 19.0139 12.3863 19.4276 12.6576C19.8315 12.9222 20.214 13.2205 20.5735 13.5525C20.6293 13.6031 20.6835 13.6553 20.7377 13.7076C20.8017 13.7699 20.8641 13.8323 20.9265 13.8946C21.7375 14.7272 22.3744 15.6962 22.8177 16.7732C23.2757 17.8855 23.5088 19.0702 23.5088 20.2938C23.5088 21.5173 23.2774 22.7021 22.8177 23.8144C22.3876 24.8559 21.7785 25.798 21.0036 26.612C20.9774 26.639 20.9511 26.6659 20.9248 26.6929C20.1139 27.5255 19.1699 28.1794 18.1209 28.6344C17.5463 28.8838 16.952 29.0675 16.3413 29.1855L13.401 34.4116C13.1728 34.8178 13.4421 35.3285 13.8968 35.3537C14.1595 35.3689 14.4238 35.3756 14.6897 35.3756C19.6624 35.3756 24.0572 32.8392 26.7167 28.9597C26.8973 28.6951 27.0697 28.4254 27.2355 28.149C27.4637 27.7648 27.6771 27.3704 27.8724 26.9642C28.0514 26.5901 28.2172 26.2092 28.3666 25.8182C28.5061 25.4559 28.6309 25.0885 28.7425 24.7127C28.8476 24.3621 28.9395 24.0065 29.02 23.6459C29.0955 23.3054 29.1595 22.9616 29.212 22.6128C29.2613 22.2808 29.3023 21.9437 29.3302 21.605C29.3582 21.278 29.3746 20.9477 29.3811 20.6157C29.3828 20.5078 29.3844 20.3983 29.3844 20.2887C29.3844 20.0696 29.3795 19.8505 29.3713 19.6331L29.3746 19.6399ZM14.6947 29.3456C14.6356 29.3456 14.5748 29.3456 14.5157 29.3439L11.0534 33.9751C10.7743 34.3493 10.9631 34.897 11.4113 35.0015C11.4179 35.0015 11.4244 35.0049 11.431 35.0066C11.6707 35.0622 11.9202 34.9678 12.0696 34.7689L16.0704 29.2394C15.5697 29.3287 15.2118 29.3473 14.6947 29.3473V29.3456ZM12.6114 29.0928L8.70254 33.1055C8.38734 33.4291 8.48912 33.9785 8.8979 34.1588C8.90283 34.1605 8.90611 34.1622 8.91104 34.1639C9.14908 34.2684 9.42488 34.2145 9.60875 34.0274L14.1858 29.3287C13.6522 29.2984 13.1269 29.2192 12.613 29.0911L12.6114 29.0928ZM11.2652 28.6361C11.0912 28.5602 10.9221 28.4793 10.7546 28.3934L6.47314 31.7657C6.13167 32.0354 6.14645 32.5696 6.50269 32.8173C6.50598 32.8207 6.5109 32.8224 6.51418 32.8258C6.74074 32.9808 7.03788 32.9741 7.25294 32.8039L12.1337 28.9597C11.8398 28.8686 11.5509 28.7608 11.2652 28.6378V28.6361ZM9.06207 27.2575L4.47358 29.9776C4.11405 30.1916 4.04838 30.6972 4.34388 30.9989C4.34717 31.0023 4.35045 31.0056 4.35373 31.009C4.55566 31.2146 4.86758 31.2567 5.11547 31.1101L10.2112 28.09C9.80903 27.8457 9.42488 27.5676 9.06371 27.2575H9.06207ZM8.46122 26.6946C8.16407 26.3896 7.89155 26.0677 7.64202 25.7272L2.80563 27.7833C2.43625 27.94 2.29999 28.4069 2.5249 28.7473C2.52654 28.7507 2.52983 28.754 2.53147 28.7591C2.69892 29.0136 3.01905 29.1113 3.29485 28.9934L8.53181 26.7671C8.50882 26.7435 8.4842 26.7199 8.46122 26.6946ZM6.59463 23.8784L1.56288 25.2621C1.19186 25.3649 0.996499 25.7795 1.14589 26.1418C1.14753 26.1452 1.14918 26.1502 1.15082 26.1536C1.2723 26.4519 1.59079 26.6086 1.89614 26.5261L7.20041 25.0666C6.97057 24.6874 6.76864 24.2897 6.59463 23.8768V23.8784ZM6.00034 21.8089L0.825765 22.5083C0.464595 22.5572 0.216702 22.9094 0.288936 23.2768C0.288936 23.2818 0.290577 23.2852 0.292219 23.2903C0.357886 23.6256 0.66488 23.8515 0.994858 23.8077L6.30733 23.0897C6.176 22.6718 6.07421 22.2437 6.00362 21.8106L6.00034 21.8089Z" fill="url(#paint0_linear_177_1678)"/>
<path d="M108.802 10.1936C106.204 7.34277 102.941 5.82475 99.1082 5.68213C95.1876 5.54278 91.7669 6.97392 88.9402 9.93292C86.1168 12.8411 84.6891 16.3837 84.6971 20.4607C84.7034 24.3918 86.0305 27.8131 88.6432 30.6311C91.2734 33.4688 94.536 34.9541 98.3353 35.0459C98.5109 35.0524 98.685 35.0557 98.8575 35.0557C102.545 35.0557 105.787 33.6393 108.503 30.8426C111.357 27.9033 112.799 24.3771 112.793 20.3624C112.786 16.464 111.443 13.0427 108.802 10.1936ZM108.256 20.0951C108.305 22.9656 107.374 25.3902 105.408 27.5049L105.403 27.5098C103.494 29.6115 101.205 30.5688 98.4087 30.4377C95.82 30.3525 93.6849 29.3262 91.8819 27.3017C90.114 25.3164 89.2373 22.9197 89.2788 20.1771C89.3187 17.4001 90.2466 15.1132 92.1198 13.1854C94.009 11.2395 96.1777 10.2919 98.7537 10.2919C98.8064 10.2919 98.8591 10.2919 98.9118 10.2919H98.9293C101.477 10.2919 103.588 11.228 105.383 13.1526C107.224 15.128 108.163 17.4017 108.256 20.0951Z" fill="#FF3E00"/>
<path d="M48.6997 6.01236C48.4442 5.88614 48.1647 5.81564 47.8788 5.80253L47.3758 5.76974C47.0532 5.75007 46.7609 5.74023 46.4974 5.74023C43.0288 5.74679 40.0936 6.98613 37.7763 9.42382C35.4767 11.8418 34.3125 14.9041 34.3189 18.5238L34.3444 32.704C34.3444 32.7319 34.3444 32.7581 34.3444 32.8073V32.845C34.3588 33.7499 34.8746 34.5499 35.6907 34.9286C35.9925 35.0695 36.3135 35.1384 36.6345 35.1384C36.9076 35.1384 37.1823 35.0876 37.4442 34.9859C38.0175 34.7646 38.4726 34.3269 38.7249 33.7532C38.8751 33.4122 38.9294 33.1253 38.9262 32.6974L38.899 18.1369C38.8958 15.9861 39.6288 14.1828 41.1412 12.6238C42.6328 11.0877 44.4373 10.3058 46.5038 10.3025C46.7066 10.3025 46.9079 10.3107 47.1538 10.332L47.684 10.3763C48.5783 10.4173 49.4103 9.91562 49.7968 9.03529C50.2999 7.89432 49.816 6.5681 48.6965 6.014L48.6997 6.01236Z" fill="#FF3E00"/>
<path d="M66.4485 5.73451C62.5327 5.58697 59.104 7.01155 56.2742 9.96563C53.4459 12.8689 52.0134 16.4082 52.0134 20.4852C52.0134 24.5623 53.3357 27.8409 55.942 30.6622C58.5674 33.5048 61.8269 34.995 65.6261 35.0933C69.4013 35.2376 72.731 33.9212 75.521 31.1884V34.9868C75.5465 37.7655 74.6634 39.9638 72.6528 42.1195C70.738 44.2179 68.4527 45.1785 65.6532 45.0359C63.0645 44.9457 60.9326 43.9162 59.1328 41.8884C58.6776 41.3753 58.3279 40.9244 58.0468 40.4933C57.8057 40.0835 57.4543 39.7622 57.0295 39.5654C55.8765 39.0294 54.5159 39.5572 53.9953 40.7408C53.6423 41.5441 53.7525 42.4703 54.2827 43.1638C54.7586 43.8867 55.2984 44.5769 55.8861 45.2129C58.5115 48.0555 61.771 49.5457 65.5702 49.6441C65.7538 49.6506 65.9375 49.6539 66.1195 49.6539C69.7958 49.6539 73.0313 48.2441 75.7445 45.4588C78.4913 42.6392 79.9382 39.2802 80.05 35.4687L80.0995 20.7672L80.1027 20.6524C80.1043 20.5803 80.1075 20.5082 80.1075 20.4344C80.1075 16.5361 78.7708 13.1115 76.1358 10.2607C73.5423 7.40499 70.2829 5.88041 66.4501 5.73123L66.4485 5.73451ZM75.5705 20.1623C75.6152 23.0344 74.6794 25.4557 72.7103 27.5672L72.7071 27.5721C70.7923 29.6704 68.5054 30.6294 65.7075 30.4885C63.1204 30.3983 60.9869 29.3688 59.1871 27.3409C57.4224 25.3541 56.5504 22.9541 56.5952 20.2115C56.6399 17.4361 57.5725 15.1508 59.4474 13.2246C61.335 11.2869 63.5005 10.3427 66.0684 10.3427C66.1275 10.3427 66.1866 10.3427 66.2457 10.3427C68.8009 10.3427 70.9169 11.282 72.7119 13.2148C74.55 15.1935 75.4858 17.4689 75.5737 20.1623H75.5705Z" fill="#FF3E00"/>
<path d="M111.752 31.906H111.031V31.4912H112.892V31.906H112.172V34.442H111.753V31.906H111.752Z" fill="#FF3E00"/>
<path d="M113.443 31.4912H114.082L114.81 33.501C114.853 33.6207 114.888 33.7551 114.928 33.883C114.925 33.883 115.003 33.6207 115.046 33.501L115.774 31.4912H116.416V34.442H115.985V32.1043L115.144 34.442H114.712L113.871 32.1043V34.442H113.444V31.4912H113.443Z" fill="#FF3E00"/>
<path d="M13.0253 53.7344H14.1884V56.9516H16.9478V53.7344H18.1109V61.389H16.9478V58.0161H14.1884V61.389H13.0253V53.7344Z" fill="#555555"/>
<path d="M20.0647 58.0764V53.7344H21.2396V58.053C21.2396 59.7151 21.5753 60.373 22.6545 60.373C23.7337 60.373 24.0812 59.7151 24.0812 58.053V53.7344H25.2561V58.0764C25.2561 60.4918 24.5008 61.4727 22.6528 61.4727C20.8049 61.4727 20.063 60.4918 20.063 58.0764H20.0647Z" fill="#555555"/>
<path d="M27.0205 58.7742H28.1837C28.1837 59.8505 28.6989 60.3895 29.7312 60.3895C30.6191 60.3895 31.0857 60.0179 31.0857 59.2763C31.0857 57.4351 27.1884 58.4026 27.1884 55.6993C27.1884 54.4322 28.1484 53.6538 29.6238 53.6538C31.267 53.6538 32.1431 54.5276 32.1431 56.178H30.9917C30.9917 55.1971 30.5486 54.7301 29.6003 54.7301C28.845 54.7301 28.3532 55.0649 28.3532 55.639C28.3532 57.4803 32.227 56.4408 32.227 59.2161C32.227 60.6389 31.3039 61.4758 29.7446 61.4758C27.9218 61.4758 27.0222 60.5786 27.0222 58.7725L27.0205 58.7742Z" fill="#555555"/>
<path d="M35.0314 54.8224H33.3278V53.7344H37.873V54.8224H36.1694V61.389H35.0297V54.8224H35.0314Z" fill="#555555"/>
<path d="M39.4344 53.7344H40.5976V60.3244H42.8652V61.389H39.4344V53.7344Z" fill="#555555"/>
<path d="M44.4691 53.7344H48.7273V54.8224H45.6205V56.9516H48.4386V58.0161H45.6205V60.301H48.7273V61.389H44.4691V53.7344Z" fill="#555555"/>
<path d="M50.6569 61.4542C50.2003 61.394 50.0325 61.1797 50.0325 60.7127C50.0325 60.162 50.2842 59.936 50.8247 59.936C51.3652 59.936 51.6052 60.1637 51.6052 60.7127C51.6052 61.1077 51.4977 61.8727 51.3652 62.9607H50.6099L50.6585 61.4542H50.6569Z" fill="#555555"/>
<path d="M56.0551 53.7344H57.2182V56.9516H59.9776V53.7344H61.1407V61.389H59.9776V58.0161H57.2182V61.389H56.0551V53.7344Z" fill="#555555"/>
<path d="M64.8576 53.7344H66.3799L68.5988 61.389H67.3753L66.9791 59.8942H64.2198L63.8002 61.389H62.6001L64.8542 53.7344H64.8576ZM66.7173 58.9368L65.6146 54.8575L64.4749 58.9368H66.7173Z" fill="#555555"/>
<path d="M70.0499 53.7344H71.5018L74.4156 59.4758V53.7344H75.567V61.389H74.1755L71.2131 55.5874V61.389H70.0499V53.7344Z" fill="#555555"/>
<path d="M77.6534 53.7344H79.9798C81.863 53.7344 82.7509 55.1454 82.7509 57.514C82.7509 59.8825 81.7908 61.389 79.8841 61.389H77.6534V53.7344ZM79.6927 60.3127C80.8928 60.3127 81.6112 59.6431 81.6112 57.5023C81.6112 55.3614 80.9398 54.8107 79.7515 54.8107H78.8032V60.3127H79.6911H79.6927Z" fill="#555555"/>
<path d="M84.6211 53.7344H85.7843V60.3244H88.0518V61.389H84.6211V53.7344Z" fill="#555555"/>
<path d="M89.6584 53.7344H93.9166V54.8224H90.8099V56.9516H93.628V58.0161H90.8099V60.301H93.9166V61.389H89.6584V53.7344Z" fill="#555555"/>
<path d="M95.7158 53.7344H98.0421C99.9253 53.7344 100.813 55.1454 100.813 57.514C100.813 59.8825 99.8532 61.389 97.9465 61.389H95.7158V53.7344ZM97.7551 60.3127C98.9552 60.3127 99.6736 59.6431 99.6736 57.5023C99.6736 55.3614 99.0022 54.8107 97.8139 54.8107H96.8655V60.3127H97.7534H97.7551Z" fill="#555555"/>
<path d="M101.819 60.7127C101.819 60.162 102.07 59.936 102.611 59.936C103.151 59.936 103.391 60.1637 103.391 60.7127C103.391 61.2617 103.14 61.4777 102.611 61.4777C102.082 61.4777 101.819 61.25 101.819 60.7127Z" fill="#555555"/>
<defs>
<linearGradient id="paint0_linear_177_1678" x1="0" y1="20.2971" x2="29.3861" y2="20.2971" gradientUnits="userSpaceOnUse">
<stop stop-color="#F2B83F"/>
<stop offset="0.49" stop-color="#FF3E00"/>
</linearGradient>
</defs>
</svg>
