<svg width="8" height="9" viewBox="0 0 8 9" fill="none" xmlns="http://www.w3.org/2000/svg">
<path d="M6.66663 1.99609H1.33329C0.966626 1.99609 0.666626 2.29609 0.666626 2.66276V6.66276C0.666626 7.02943 0.966626 7.32943 1.33329 7.32943H6.66663C7.03329 7.32943 7.33329 7.02943 7.33329 6.66276V2.66276C7.33329 2.29609 7.03329 1.99609 6.66663 1.99609ZM6.53329 3.41276L4.35329 4.77609C4.13663 4.91276 3.86329 4.91276 3.64663 4.77609L1.46663 3.41276C1.38329 3.35943 1.33329 3.26943 1.33329 3.17276C1.33329 2.94943 1.57663 2.81609 1.76663 2.93276L3.99996 4.32943L6.23329 2.93276C6.42329 2.81609 6.66663 2.94943 6.66663 3.17276C6.66663 3.26943 6.61663 3.35943 6.53329 3.41276Z" fill="#F94C15"/>
</svg>
