<svg width="9" height="9" viewBox="0 0 9 9" fill="none" xmlns="http://www.w3.org/2000/svg">
<g clip-path="url(#clip0_177_1658)">
<path d="M4.06608 1.3291C2.22608 1.3291 0.736084 2.82243 0.736084 4.66244C0.736084 6.50244 2.22608 7.99577 4.06608 7.99577C5.90942 7.99577 7.40275 6.50244 7.40275 4.66244C7.40275 2.82243 5.90942 1.3291 4.06608 1.3291ZM6.37608 3.3291H5.39275C5.28608 2.91243 5.13275 2.51243 4.93275 2.14243C5.54608 2.35243 6.05608 2.7791 6.37608 3.3291ZM4.06942 2.0091C4.34608 2.4091 4.56275 2.85243 4.70608 3.3291H3.43275C3.57608 2.85243 3.79275 2.4091 4.06942 2.0091ZM1.48942 5.3291C1.43608 5.11577 1.40275 4.89244 1.40275 4.66244C1.40275 4.43244 1.43608 4.2091 1.48942 3.99577H2.61608C2.58942 4.21577 2.56942 4.43577 2.56942 4.66244C2.56942 4.8891 2.58942 5.1091 2.61608 5.3291H1.48942ZM1.76275 5.99577H2.74608C2.85275 6.41244 3.00608 6.81243 3.20608 7.18244C2.59275 6.97243 2.08275 6.5491 1.76275 5.99577ZM2.74608 3.3291H1.76275C2.08275 2.77577 2.59275 2.35243 3.20608 2.14243C3.00608 2.51243 2.85275 2.91243 2.74608 3.3291ZM4.06942 7.31577C3.79275 6.91577 3.57608 6.47243 3.43275 5.99577H4.70608C4.56275 6.47243 4.34608 6.91577 4.06942 7.31577ZM4.84942 5.3291H3.28942C3.25942 5.1091 3.23608 4.8891 3.23608 4.66244C3.23608 4.43577 3.25942 4.21244 3.28942 3.99577H4.84942C4.87942 4.21244 4.90275 4.43577 4.90275 4.66244C4.90275 4.8891 4.87942 5.1091 4.84942 5.3291ZM4.93275 7.18244C5.13275 6.81243 5.28608 6.41244 5.39275 5.99577H6.37608C6.05608 6.54577 5.54608 6.97243 4.93275 7.18244ZM5.52275 5.3291C5.54942 5.1091 5.56942 4.8891 5.56942 4.66244C5.56942 4.43577 5.54942 4.21577 5.52275 3.99577H6.64942C6.70275 4.2091 6.73608 4.43244 6.73608 4.66244C6.73608 4.89244 6.70275 5.11577 6.64942 5.3291H5.52275Z" fill="#F94C15"/>
</g>
<defs>
<clipPath id="clip0_177_1658">
<rect width="8" height="8" fill="white" transform="translate(0.069458 0.662598)"/>
</clipPath>
</defs>
</svg>
